<mxfile host="app.diagrams.net" modified="2024-04-14T12:43:53.590Z" agent="Mozilla/5.0 (Windows NT 10.0; Win64; x64) AppleWebKit/537.36 (KHTML, like Gecko) Chrome/116.0.0.0 Safari/537.36 NetType/WIFI MicroMessenger/7.0.20.1781(0x6700143B) WindowsWechat(0x6309092b) XWEB/9105 Flue" etag="JZEudOwKBz_Nb73HXkso" version="24.2.5" type="github">
  <diagram id="C5RBs43oDa-KdzZeNtuy" name="Page-1">
    <mxGraphModel dx="1050" dy="649" grid="1" gridSize="10" guides="1" tooltips="1" connect="1" arrows="1" fold="1" page="1" pageScale="1" pageWidth="827" pageHeight="1169" math="0" shadow="0">
      <root>
        <mxCell id="WIyWlLk6GJQsqaUBKTNV-0" />
        <mxCell id="WIyWlLk6GJQsqaUBKTNV-1" parent="WIyWlLk6GJQsqaUBKTNV-0" />
        <mxCell id="8RjQsO0M0HPH7stRvkiD-3" style="edgeStyle=orthogonalEdgeStyle;rounded=0;orthogonalLoop=1;jettySize=auto;html=1;" edge="1" parent="WIyWlLk6GJQsqaUBKTNV-1" source="8RjQsO0M0HPH7stRvkiD-0" target="8RjQsO0M0HPH7stRvkiD-1">
          <mxGeometry relative="1" as="geometry" />
        </mxCell>
        <mxCell id="8RjQsO0M0HPH7stRvkiD-0" value="管理员选择查询方式" style="rounded=0;whiteSpace=wrap;html=1;" vertex="1" parent="WIyWlLk6GJQsqaUBKTNV-1">
          <mxGeometry x="260" y="150" width="120" height="60" as="geometry" />
        </mxCell>
        <mxCell id="8RjQsO0M0HPH7stRvkiD-4" style="edgeStyle=orthogonalEdgeStyle;rounded=0;orthogonalLoop=1;jettySize=auto;html=1;" edge="1" parent="WIyWlLk6GJQsqaUBKTNV-1" source="8RjQsO0M0HPH7stRvkiD-1" target="8RjQsO0M0HPH7stRvkiD-2">
          <mxGeometry relative="1" as="geometry" />
        </mxCell>
        <mxCell id="8RjQsO0M0HPH7stRvkiD-1" value="管理员通过系统进行查询" style="rounded=0;whiteSpace=wrap;html=1;" vertex="1" parent="WIyWlLk6GJQsqaUBKTNV-1">
          <mxGeometry x="260" y="280" width="120" height="60" as="geometry" />
        </mxCell>
        <mxCell id="8RjQsO0M0HPH7stRvkiD-2" value="系统显示查询结果" style="rounded=0;whiteSpace=wrap;html=1;" vertex="1" parent="WIyWlLk6GJQsqaUBKTNV-1">
          <mxGeometry x="260" y="420" width="120" height="60" as="geometry" />
        </mxCell>
      </root>
    </mxGraphModel>
  </diagram>
</mxfile>
